# Blender v2.82 (sub 7) OBJ File: ''
# www.blender.org
o Cube
v 0.100000 2.000000 -0.100000
v 0.100000 0.000000 -0.100000
v 0.100000 2.000000 0.100000
v 0.100000 0.000000 0.100000
v -0.100000 2.000000 -0.100000
v -0.100000 0.000000 -0.100000
v -0.100000 2.000000 0.100000
v -0.100000 0.000000 0.100000
v 0.000000 2.000000 -0.400000
v 0.078036 2.000000 -0.392314
v 0.153073 2.000000 -0.369552
v 0.222228 2.000000 -0.332588
v 0.282843 2.000000 -0.282843
v 0.332588 2.000000 -0.222228
v 0.369552 2.000000 -0.153073
v 0.392314 2.000000 -0.078036
v 0.400000 2.000000 -0.000000
v 0.392314 2.000000 0.078036
v 0.369552 2.000000 0.153073
v 0.332588 2.000000 0.222228
v 0.282843 2.000000 0.282843
v 0.222228 2.000000 0.332588
v 0.153073 2.000000 0.369552
v 0.078036 2.000000 0.392314
v -0.000000 2.000000 0.400000
v -0.078036 2.000000 0.392314
v -0.153074 2.000000 0.369552
v -0.222228 2.000000 0.332588
v -0.282843 2.000000 0.282843
v -0.332588 2.000000 0.222228
v -0.369552 2.000000 0.153073
v 0.000000 2.800000 0.000000
v -0.392314 2.000000 0.078036
v -0.400000 2.000000 -0.000000
v -0.392314 2.000000 -0.078037
v -0.369552 2.000000 -0.153074
v -0.332588 2.000000 -0.222229
v -0.282842 2.000000 -0.282843
v -0.222228 2.000000 -0.332588
v -0.153073 2.000000 -0.369552
v -0.078036 2.000000 -0.392314
vn 0.0000 1.0000 0.0000
vn 0.0000 0.0000 1.0000
vn -1.0000 0.0000 0.0000
vn 0.0000 -1.0000 0.0000
vn 1.0000 0.0000 0.0000
vn 0.0000 0.0000 -1.0000
vn 0.0878 0.4455 -0.8910
vn 0.2599 0.4455 -0.8567
vn 0.4220 0.4455 -0.7896
vn 0.5680 0.4455 -0.6921
vn 0.6921 0.4455 -0.5680
vn 0.7896 0.4455 -0.4220
vn 0.8567 0.4455 -0.2599
vn 0.8910 0.4455 -0.0878
vn 0.8910 0.4455 0.0878
vn 0.8567 0.4455 0.2599
vn 0.7896 0.4455 0.4220
vn 0.6921 0.4455 0.5680
vn 0.5680 0.4455 0.6921
vn 0.4220 0.4455 0.7896
vn 0.2599 0.4455 0.8567
vn 0.0878 0.4455 0.8910
vn -0.0878 0.4455 0.8910
vn -0.2599 0.4455 0.8567
vn -0.4220 0.4455 0.7896
vn -0.5680 0.4455 0.6921
vn -0.6921 0.4455 0.5680
vn -0.7896 0.4455 0.4220
vn -0.8567 0.4455 0.2599
vn -0.8910 0.4455 0.0878
vn -0.8910 0.4455 -0.0878
vn -0.8567 0.4455 -0.2599
vn -0.7896 0.4455 -0.4220
vn -0.6921 0.4455 -0.5680
vn -0.5680 0.4455 -0.6921
vn -0.4220 0.4455 -0.7896
vn -0.2599 0.4455 -0.8567
vn -0.0878 0.4455 -0.8910
s off
f 5//1 3//1 1//1
f 3//2 8//2 4//2
f 7//3 6//3 8//3
f 2//4 8//4 6//4
f 1//5 4//5 2//5
f 5//6 2//6 6//6
f 9//7 32//7 10//7
f 10//8 32//8 11//8
f 11//9 32//9 12//9
f 12//10 32//10 13//10
f 13//11 32//11 14//11
f 14//12 32//12 15//12
f 15//13 32//13 16//13
f 16//14 32//14 17//14
f 17//15 32//15 18//15
f 18//16 32//16 19//16
f 19//17 32//17 20//17
f 20//18 32//18 21//18
f 21//19 32//19 22//19
f 22//20 32//20 23//20
f 23//21 32//21 24//21
f 24//22 32//22 25//22
f 25//23 32//23 26//23
f 26//24 32//24 27//24
f 27//25 32//25 28//25
f 28//26 32//26 29//26
f 29//27 32//27 30//27
f 30//28 32//28 31//28
f 31//29 32//29 33//29
f 33//30 32//30 34//30
f 34//31 32//31 35//31
f 35//32 32//32 36//32
f 36//33 32//33 37//33
f 37//34 32//34 38//34
f 38//35 32//35 39//35
f 39//36 32//36 40//36
f 40//37 32//37 41//37
f 41//38 32//38 9//38
f 16//4 24//4 33//4
f 5//1 7//1 3//1
f 3//2 7//2 8//2
f 7//3 5//3 6//3
f 2//4 4//4 8//4
f 1//5 3//5 4//5
f 5//6 1//6 2//6
f 41//4 9//4 10//4
f 10//4 11//4 41//4
f 11//4 12//4 41//4
f 12//4 13//4 14//4
f 14//4 15//4 12//4
f 15//4 16//4 12//4
f 16//4 17//4 18//4
f 18//4 19//4 16//4
f 19//4 20//4 16//4
f 20//4 21//4 24//4
f 21//4 22//4 24//4
f 22//4 23//4 24//4
f 24//4 25//4 26//4
f 26//4 27//4 24//4
f 27//4 28//4 24//4
f 28//4 29//4 33//4
f 29//4 30//4 33//4
f 30//4 31//4 33//4
f 33//4 34//4 35//4
f 35//4 36//4 33//4
f 36//4 37//4 33//4
f 37//4 38//4 41//4
f 38//4 39//4 41//4
f 39//4 40//4 41//4
f 41//4 12//4 16//4
f 16//4 20//4 24//4
f 24//4 28//4 33//4
f 33//4 37//4 41//4
f 41//4 16//4 33//4
